<?xml version="1.0" encoding="UTF-8" standalone="no"?>
<!-- Created with Inkscape (http://www.inkscape.org/) -->

<svg
   xmlns:dc="http://purl.org/dc/elements/1.1/"
   xmlns:cc="http://creativecommons.org/ns#"
   xmlns:rdf="http://www.w3.org/1999/02/22-rdf-syntax-ns#"
   xmlns:svg="http://www.w3.org/2000/svg"
   xmlns="http://www.w3.org/2000/svg"
   xmlns:sodipodi="http://sodipodi.sourceforge.net/DTD/sodipodi-0.dtd"
   xmlns:inkscape="http://www.inkscape.org/namespaces/inkscape"
   version="1.1"
   id="svg2"
   xml:space="preserve"
   width="401.49118"
   height="97.422928"
   viewBox="0 0 401.49118 97.42293"
   sodipodi:docname="EIEE_2019_Logo.svg"
   inkscape:version="0.92.4 5da689c313, 2019-01-14"><metadata
     id="metadata8"><rdf:RDF><cc:Work
         rdf:about=""><dc:format>image/svg+xml</dc:format><dc:type
           rdf:resource="http://purl.org/dc/dcmitype/StillImage" /><dc:title></dc:title></cc:Work></rdf:RDF></metadata><defs
     id="defs6"><clipPath
       clipPathUnits="userSpaceOnUse"
       id="clipPath24"><path
         d="M 0,122.654 H 342.796 V 0 H 0 Z"
         id="path22"
         inkscape:connector-curvature="0" /></clipPath></defs><sodipodi:namedview
     pagecolor="#ffffff"
     bordercolor="#666666"
     borderopacity="1"
     objecttolerance="10"
     gridtolerance="10"
     guidetolerance="10"
     inkscape:pageopacity="0"
     inkscape:pageshadow="2"
     inkscape:window-width="812"
     inkscape:window-height="480"
     id="namedview4"
     showgrid="false"
     inkscape:zoom="0.79639201"
     inkscape:cx="202.0784"
     inkscape:cy="48.71095"
     inkscape:window-x="954"
     inkscape:window-y="248"
     inkscape:window-maximized="0"
     inkscape:current-layer="g10" /><g
     id="g10"
     inkscape:groupmode="layer"
     inkscape:label="EIEE_2019_Logo"
     transform="matrix(1.3333333,0,0,-1.3333333,-26.452266,130.48132)"><g
       id="g14"
       transform="translate(205.8863,71.0601)"><path
         d="M 0,0 V -1.059 H -5.014 -6.03 v 9.887 h 1.264 4.701 V 7.762 H -4.766 V 4.577 h 4.101 V 3.518 H -4.766 V 0 Z"
         style="fill:#ffffff;fill-opacity:1;fill-rule:nonzero;stroke:none"
         id="path16"
         inkscape:connector-curvature="0" /></g><g
       id="g18"><g
         id="g20"
         clip-path="url(#clipPath24)"><g
           id="g26"
           transform="translate(212.6832,77.3481)"><path
             d="m 0,0 v -7.347 h -1.16 l -0.02,0.726 c -0.469,-0.574 -1.158,-0.862 -2.066,-0.862 -0.727,0 -1.293,0.222 -1.702,0.666 -0.408,0.443 -0.613,1.136 -0.613,2.077 V 0 h 1.219 v -4.753 c 0,-0.611 0.121,-1.042 0.363,-1.294 0.241,-0.251 0.55,-0.377 0.928,-0.377 0.912,0 1.523,0.356 1.832,1.067 V 0 Z"
             style="fill:#ffffff;fill-opacity:1;fill-rule:nonzero;stroke:none"
             id="path28"
             inkscape:connector-curvature="0" /></g><g
           id="g30"
           transform="translate(217.6822,77.4536)"><path
             d="m 0,0 c 0.118,-0.021 0.198,-0.042 0.241,-0.065 v -1.161 c -0.186,0.037 -0.385,0.055 -0.593,0.055 -0.4,0 -0.733,-0.093 -1.001,-0.279 -0.266,-0.186 -0.467,-0.446 -0.602,-0.781 v -5.222 h -1.219 v 7.348 h 1.186 l 0.026,-0.835 c 0.183,0.307 0.413,0.546 0.691,0.716 0.278,0.169 0.604,0.254 0.978,0.254 C -0.215,0.03 -0.117,0.02 0,0"
             style="fill:#ffffff;fill-opacity:1;fill-rule:nonzero;stroke:none"
             id="path32"
             inkscape:connector-curvature="0" /></g><g
           id="g34"
           transform="translate(219.9361,72.228)"><path
             d="m 0,0 c 0.149,-0.412 0.374,-0.739 0.675,-0.981 0.3,-0.242 0.664,-0.363 1.095,-0.363 0.425,0 0.789,0.121 1.088,0.363 0.3,0.242 0.525,0.569 0.675,0.981 0.15,0.412 0.225,0.867 0.225,1.365 V 1.521 C 3.758,2.019 3.682,2.474 3.529,2.886 3.377,3.298 3.151,3.626 2.852,3.871 2.552,4.115 2.187,4.237 1.757,4.237 1.33,4.237 0.969,4.115 0.671,3.871 0.373,3.626 0.149,3.298 0,2.886 -0.15,2.474 -0.226,2.019 -0.226,1.521 V 1.365 C -0.226,0.867 -0.15,0.412 0,0 M -1.053,3.436 C -0.792,4.002 -0.42,4.447 0.064,4.771 0.55,5.094 1.113,5.256 1.757,5.256 2.408,5.256 2.978,5.094 3.465,4.771 3.951,4.447 4.325,4.002 4.586,3.436 4.847,2.87 4.977,2.232 4.977,1.521 V 1.365 C 4.977,0.654 4.847,0.017 4.586,-0.546 4.325,-1.11 3.952,-1.554 3.468,-1.877 2.983,-2.201 2.417,-2.363 1.77,-2.363 c -0.648,0 -1.214,0.162 -1.699,0.486 -0.484,0.323 -0.858,0.767 -1.121,1.331 -0.262,0.563 -0.394,1.2 -0.394,1.911 v 0.156 c 0,0.711 0.131,1.349 0.391,1.915"
             style="fill:#ffffff;fill-opacity:1;fill-rule:nonzero;stroke:none"
             id="path36"
             inkscape:connector-curvature="0" /></g><g
           id="g38"
           transform="translate(231.1705,73.7358)"><path
             d="m 0,0 c 0,0.507 -0.068,0.963 -0.205,1.368 -0.137,0.405 -0.348,0.728 -0.633,0.968 -0.284,0.24 -0.638,0.36 -1.058,0.36 -0.383,0 -0.709,-0.091 -0.979,-0.272 -0.27,-0.181 -0.486,-0.428 -0.651,-0.74 v -3.538 c 0.36,-0.666 0.908,-0.998 1.642,-0.998 0.417,0 0.767,0.121 1.05,0.363 0.282,0.242 0.492,0.567 0.629,0.974 C -0.068,-1.107 0,-0.65 0,-0.143 Z M -0.039,3.283 C 0.374,2.973 0.687,2.536 0.899,1.973 1.112,1.409 1.219,0.751 1.219,0 v -0.143 c 0,-0.719 -0.108,-1.361 -0.323,-1.925 -0.214,-0.563 -0.528,-1.005 -0.938,-1.324 -0.411,-0.319 -0.901,-0.479 -1.471,-0.479 -0.851,0 -1.522,0.281 -2.013,0.842 V -6.56 H -4.745 V 3.612 h 1.107 l 0.066,-0.801 c 0.491,0.625 1.171,0.937 2.04,0.937 0.583,0 1.08,-0.155 1.493,-0.465"
             style="fill:#ffffff;fill-opacity:1;fill-rule:nonzero;stroke:none"
             id="path40"
             inkscape:connector-curvature="0" /></g><g
           id="g42"
           transform="translate(238.3863,74.4419)"><path
             d="M 0,0 C -0.035,0.575 -0.184,1.056 -0.446,1.443 -0.71,1.83 -1.123,2.023 -1.688,2.023 -2.175,2.023 -2.58,1.839 -2.904,1.47 -3.228,1.101 -3.431,0.58 -3.514,-0.095 H 0 Z m 1.219,-1.114 h -4.772 c 0.013,-0.457 0.105,-0.871 0.274,-1.242 0.17,-0.372 0.41,-0.665 0.72,-0.88 0.311,-0.215 0.675,-0.322 1.092,-0.322 0.408,0 0.762,0.086 1.06,0.258 0.298,0.172 0.563,0.419 0.799,0.74 L 1.128,-3.158 C 0.867,-3.574 0.52,-3.915 0.085,-4.18 -0.35,-4.444 -0.889,-4.577 -1.532,-4.577 c -0.643,0 -1.21,0.152 -1.701,0.455 -0.492,0.304 -0.871,0.725 -1.138,1.263 -0.267,0.539 -0.4,1.15 -0.4,1.834 v 0.292 c 0,0.765 0.143,1.434 0.429,2.006 0.287,0.573 0.666,1.011 1.138,1.314 0.472,0.303 0.976,0.455 1.516,0.455 0.656,0 1.2,-0.153 1.632,-0.459 C 0.377,2.278 0.697,1.856 0.906,1.317 1.114,0.778 1.219,0.156 1.219,-0.55 Z"
             style="fill:#ffffff;fill-opacity:1;fill-rule:nonzero;stroke:none"
             id="path44"
             inkscape:connector-curvature="0" /></g><g
           id="g46"
           transform="translate(244.1461,71.1045)"><path
             d="M 0,0 C 0.241,0.102 0.448,0.236 0.622,0.404 0.796,0.571 0.929,0.752 1.02,0.947 V 2.468 H 0.029 c -0.695,0 -1.228,-0.114 -1.597,-0.343 -0.369,-0.229 -0.554,-0.567 -0.554,-1.015 0,-0.24 0.052,-0.455 0.156,-0.645 0.105,-0.19 0.257,-0.34 0.456,-0.451 0.2,-0.112 0.444,-0.167 0.731,-0.167 0.278,0 0.538,0.051 0.779,0.153 m 2.304,-0.299 c 0.044,-0.274 0.104,-0.506 0.182,-0.696 v -0.109 h -1.27 c -0.074,0.177 -0.131,0.433 -0.17,0.768 -0.243,-0.272 -0.536,-0.49 -0.877,-0.656 -0.341,-0.165 -0.716,-0.247 -1.124,-0.247 -0.47,0 -0.886,0.096 -1.249,0.288 -0.362,0.193 -0.643,0.454 -0.841,0.784 -0.197,0.331 -0.296,0.698 -0.296,1.101 0,0.52 0.129,0.962 0.388,1.324 0.258,0.362 0.626,0.635 1.101,0.818 0.476,0.183 1.038,0.275 1.685,0.275 H 1.02 v 0.584 c 0,0.448 -0.127,0.8 -0.381,1.056 -0.255,0.256 -0.62,0.384 -1.099,0.384 -0.291,0 -0.552,-0.054 -0.782,-0.16 C -1.473,5.108 -1.651,4.966 -1.78,4.787 -1.908,4.608 -1.973,4.415 -1.973,4.207 h -1.218 c 0,0.357 0.117,0.704 0.352,1.039 0.235,0.335 0.565,0.607 0.99,0.818 0.426,0.21 0.913,0.315 1.46,0.315 0.522,0 0.98,-0.091 1.373,-0.275 C 1.377,5.921 1.685,5.645 1.906,5.276 2.128,4.907 2.239,4.456 2.239,3.921 V 0.499 c 0,-0.258 0.022,-0.524 0.065,-0.798"
             style="fill:#ffffff;fill-opacity:1;fill-rule:nonzero;stroke:none"
             id="path48"
             inkscape:connector-curvature="0" /></g><g
           id="g50"
           transform="translate(253.8297,74.8154)"><path
             d="m 0,0 v -4.814 h -1.219 v 4.828 c 0,0.561 -0.117,0.968 -0.349,1.222 -0.233,0.253 -0.583,0.38 -1.053,0.38 C -2.994,1.616 -3.33,1.51 -3.628,1.297 -3.926,1.084 -4.161,0.799 -4.335,0.441 V -4.814 H -5.554 V 2.533 H -4.4 l 0.039,-0.904 c 0.257,0.331 0.562,0.587 0.919,0.768 0.356,0.181 0.75,0.271 1.18,0.271 C -0.754,2.668 0,1.779 0,0"
             style="fill:#ffffff;fill-opacity:1;fill-rule:nonzero;stroke:none"
             id="path52"
             inkscape:connector-curvature="0" /></g><path
           d="m 259.241,79.888 h 1.265 v -9.887 h -1.265 z"
           style="fill:#ffffff;fill-opacity:1;fill-rule:nonzero;stroke:none"
           id="path54"
           inkscape:connector-curvature="0" /><g
           id="g56"
           transform="translate(268.1519,74.8154)"><path
             d="m 0,0 v -4.814 h -1.219 v 4.828 c 0,0.561 -0.117,0.968 -0.349,1.222 -0.233,0.253 -0.583,0.38 -1.053,0.38 C -2.994,1.616 -3.33,1.51 -3.628,1.297 -3.926,1.084 -4.161,0.799 -4.335,0.441 V -4.814 H -5.554 V 2.533 H -4.4 l 0.039,-0.904 c 0.257,0.331 0.562,0.587 0.919,0.768 0.356,0.181 0.75,0.271 1.18,0.271 C -0.754,2.668 0,1.779 0,0"
             style="fill:#ffffff;fill-opacity:1;fill-rule:nonzero;stroke:none"
             id="path58"
             inkscape:connector-curvature="0" /></g><g
           id="g60"
           transform="translate(270.5611,73.9868)"><path
             d="m 0,0 c -0.429,0.326 -0.643,0.776 -0.643,1.352 0,0.389 0.109,0.746 0.327,1.072 C -0.1,2.75 0.208,3.01 0.605,3.205 1.004,3.4 1.459,3.497 1.972,3.497 2.52,3.497 2.997,3.396 3.405,3.191 3.814,2.988 4.126,2.713 4.341,2.367 4.557,2.02 4.664,1.634 4.664,1.209 h -1.22 c 0,0.208 -0.058,0.41 -0.175,0.604 C 3.151,2.008 2.98,2.167 2.757,2.292 2.533,2.417 2.271,2.479 1.972,2.479 1.654,2.479 1.392,2.428 1.183,2.326 0.975,2.224 0.821,2.09 0.724,1.925 0.625,1.76 0.576,1.582 0.576,1.392 0.576,1.197 0.621,1.036 0.71,0.907 0.799,0.778 0.96,0.661 1.192,0.557 1.425,0.453 1.761,0.351 2.2,0.251 c 0.591,-0.14 1.071,-0.305 1.441,-0.495 0.369,-0.191 0.643,-0.423 0.824,-0.7 0.181,-0.276 0.27,-0.611 0.27,-1.005 0,-0.426 -0.113,-0.802 -0.339,-1.13 C 4.171,-3.408 3.852,-3.663 3.438,-3.847 3.025,-4.03 2.547,-4.122 2.004,-4.122 c -0.6,0 -1.118,0.112 -1.555,0.336 -0.436,0.224 -0.767,0.52 -0.994,0.887 -0.226,0.366 -0.339,0.758 -0.339,1.174 h 1.219 c 0.018,-0.326 0.109,-0.591 0.274,-0.797 0.165,-0.207 0.37,-0.355 0.617,-0.445 0.245,-0.091 0.504,-0.136 0.778,-0.136 0.317,0 0.59,0.046 0.818,0.139 0.229,0.093 0.402,0.22 0.519,0.381 0.117,0.16 0.176,0.342 0.176,0.546 0,0.204 -0.041,0.38 -0.124,0.53 C 3.31,-1.358 3.151,-1.22 2.917,-1.093 2.682,-0.966 2.343,-0.855 1.899,-0.76 1.062,-0.58 0.428,-0.326 0,0"
             style="fill:#ffffff;fill-opacity:1;fill-rule:nonzero;stroke:none"
             id="path62"
             inkscape:connector-curvature="0" /></g><g
           id="g64"
           transform="translate(279.8531,70.001)"><path
             d="m 0,0 c -0.277,-0.09 -0.589,-0.136 -0.932,-0.136 -0.491,0 -0.885,0.154 -1.183,0.462 -0.298,0.308 -0.447,0.808 -0.447,1.501 V 6.39 h -1.284 v 0.957 h 1.284 v 1.786 h 1.219 V 7.347 h 1.318 V 6.39 H -1.343 V 1.82 c 0,-0.349 0.07,-0.583 0.209,-0.703 0.139,-0.12 0.328,-0.18 0.568,-0.18 0.09,0 0.19,0.008 0.299,0.024 0.109,0.016 0.196,0.033 0.261,0.051 z"
             style="fill:#ffffff;fill-opacity:1;fill-rule:nonzero;stroke:none"
             id="path66"
             inkscape:connector-curvature="0" /></g><path
           d="m 281.333,77.348 h 1.22 v -7.347 h -1.22 z m 1.151,2.472 c 0.128,-0.136 0.191,-0.308 0.191,-0.516 0,-0.204 -0.063,-0.373 -0.191,-0.506 -0.129,-0.133 -0.306,-0.2 -0.532,-0.2 -0.226,0 -0.401,0.067 -0.525,0.2 -0.124,0.133 -0.185,0.302 -0.185,0.506 0,0.208 0.061,0.38 0.185,0.516 0.124,0.136 0.299,0.203 0.525,0.203 0.226,0 0.403,-0.067 0.532,-0.203"
           style="fill:#ffffff;fill-opacity:1;fill-rule:nonzero;stroke:none"
           id="path68"
           inkscape:connector-curvature="0" /><g
           id="g70"
           transform="translate(287.4664,70.001)"><path
             d="m 0,0 c -0.277,-0.09 -0.589,-0.136 -0.932,-0.136 -0.491,0 -0.885,0.154 -1.183,0.462 -0.298,0.308 -0.447,0.808 -0.447,1.501 V 6.39 h -1.284 v 0.957 h 1.284 v 1.786 h 1.219 V 7.347 h 1.318 V 6.39 H -1.343 V 1.82 c 0,-0.349 0.07,-0.583 0.209,-0.703 0.139,-0.12 0.328,-0.18 0.568,-0.18 0.09,0 0.19,0.008 0.299,0.024 0.109,0.016 0.196,0.033 0.261,0.051 z"
             style="fill:#ffffff;fill-opacity:1;fill-rule:nonzero;stroke:none"
             id="path72"
             inkscape:connector-curvature="0" /></g><g
           id="g74"
           transform="translate(294.3765,77.3481)"><path
             d="m 0,0 v -7.347 h -1.16 l -0.02,0.726 c -0.469,-0.574 -1.158,-0.862 -2.066,-0.862 -0.727,0 -1.293,0.222 -1.702,0.666 -0.408,0.443 -0.613,1.136 -0.613,2.077 V 0 h 1.219 v -4.753 c 0,-0.611 0.121,-1.042 0.363,-1.294 0.241,-0.251 0.55,-0.377 0.928,-0.377 0.912,0 1.523,0.356 1.832,1.067 V 0 Z"
             style="fill:#ffffff;fill-opacity:1;fill-rule:nonzero;stroke:none"
             id="path76"
             inkscape:connector-curvature="0" /></g><g
           id="g78"
           transform="translate(299.1929,70.001)"><path
             d="m 0,0 c -0.277,-0.09 -0.589,-0.136 -0.932,-0.136 -0.491,0 -0.885,0.154 -1.183,0.462 -0.298,0.308 -0.447,0.808 -0.447,1.501 V 6.39 h -1.284 v 0.957 h 1.284 v 1.786 h 1.219 V 7.347 h 1.318 V 6.39 H -1.343 V 1.82 c 0,-0.349 0.07,-0.583 0.209,-0.703 0.139,-0.12 0.328,-0.18 0.568,-0.18 0.09,0 0.19,0.008 0.299,0.024 0.109,0.016 0.196,0.033 0.261,0.051 z"
             style="fill:#ffffff;fill-opacity:1;fill-rule:nonzero;stroke:none"
             id="path80"
             inkscape:connector-curvature="0" /></g><g
           id="g82"
           transform="translate(305.0338,74.4419)"><path
             d="M 0,0 C -0.035,0.575 -0.184,1.056 -0.446,1.443 -0.71,1.83 -1.123,2.023 -1.688,2.023 -2.175,2.023 -2.58,1.839 -2.904,1.47 -3.228,1.101 -3.431,0.58 -3.514,-0.095 H 0 Z m 1.219,-1.114 h -4.772 c 0.013,-0.457 0.105,-0.871 0.274,-1.242 0.17,-0.372 0.41,-0.665 0.72,-0.88 0.311,-0.215 0.675,-0.322 1.092,-0.322 0.408,0 0.762,0.086 1.06,0.258 0.298,0.172 0.563,0.419 0.799,0.74 L 1.128,-3.158 C 0.867,-3.574 0.52,-3.915 0.085,-4.18 -0.35,-4.444 -0.889,-4.577 -1.532,-4.577 c -0.643,0 -1.21,0.152 -1.701,0.455 -0.492,0.304 -0.871,0.725 -1.138,1.263 -0.267,0.539 -0.4,1.15 -0.4,1.834 v 0.292 c 0,0.765 0.143,1.434 0.429,2.006 0.287,0.573 0.666,1.011 1.138,1.314 0.472,0.303 0.976,0.455 1.516,0.455 0.656,0 1.2,-0.153 1.632,-0.459 C 0.377,2.278 0.697,1.856 0.906,1.317 1.114,0.778 1.219,0.156 1.219,-0.55 Z"
             style="fill:#ffffff;fill-opacity:1;fill-rule:nonzero;stroke:none"
             id="path84"
             inkscape:connector-curvature="0" /></g><g
           id="g86"
           transform="translate(201.3589,57.4858)"><path
             d="m 0,0 c 0.149,-0.411 0.374,-0.738 0.675,-0.98 0.3,-0.243 0.664,-0.364 1.095,-0.364 0.425,0 0.789,0.121 1.088,0.364 0.3,0.242 0.525,0.569 0.675,0.98 0.15,0.412 0.225,0.867 0.225,1.365 V 1.521 C 3.758,2.02 3.682,2.475 3.529,2.887 3.377,3.298 3.151,3.627 2.852,3.871 2.552,4.116 2.187,4.238 1.757,4.238 1.33,4.238 0.969,4.116 0.671,3.871 0.373,3.627 0.149,3.298 0,2.887 -0.15,2.475 -0.226,2.02 -0.226,1.521 V 1.365 C -0.226,0.867 -0.15,0.412 0,0 m -1.053,3.437 c 0.261,0.565 0.633,1.01 1.117,1.334 0.486,0.324 1.049,0.485 1.693,0.485 0.651,0 1.221,-0.161 1.708,-0.485 C 3.951,4.447 4.325,4.002 4.586,3.437 4.847,2.87 4.977,2.232 4.977,1.521 V 1.365 C 4.977,0.654 4.847,0.018 4.586,-0.546 4.325,-1.109 3.952,-1.554 3.468,-1.877 2.983,-2.201 2.417,-2.362 1.77,-2.362 c -0.648,0 -1.214,0.161 -1.699,0.485 -0.484,0.323 -0.858,0.768 -1.121,1.331 -0.262,0.564 -0.394,1.2 -0.394,1.911 v 0.156 c 0,0.711 0.131,1.349 0.391,1.916"
             style="fill:#ffffff;fill-opacity:1;fill-rule:nonzero;stroke:none"
             id="path88"
             inkscape:connector-curvature="0" /></g><g
           id="g90"
           transform="translate(213.4019,60.0737)"><path
             d="m 0,0 v -4.814 h -1.219 v 4.828 c 0,0.56 -0.117,0.968 -0.349,1.222 -0.233,0.253 -0.583,0.38 -1.053,0.38 C -2.994,1.616 -3.33,1.51 -3.628,1.297 -3.926,1.084 -4.161,0.799 -4.335,0.441 V -4.814 H -5.554 V 2.533 H -4.4 l 0.039,-0.904 c 0.257,0.331 0.562,0.587 0.919,0.768 0.356,0.181 0.75,0.271 1.18,0.271 C -0.754,2.668 0,1.779 0,0"
             style="fill:#ffffff;fill-opacity:1;fill-rule:nonzero;stroke:none"
             id="path92"
             inkscape:connector-curvature="0" /></g><g
           id="g94"
           transform="translate(224.7515,56.3179)"><path
             d="M 0,0 V -1.059 H -5.014 -6.03 v 9.887 h 1.264 4.701 V 7.762 H -4.766 V 4.578 h 4.101 V 3.518 H -4.766 V 0 Z"
             style="fill:#ffffff;fill-opacity:1;fill-rule:nonzero;stroke:none"
             id="path96"
             inkscape:connector-curvature="0" /></g><g
           id="g98"
           transform="translate(231.6451,57.5815)"><path
             d="m 0,0 c -0.021,-0.431 -0.163,-0.834 -0.424,-1.212 -0.261,-0.378 -0.602,-0.681 -1.026,-0.907 -0.424,-0.226 -0.879,-0.339 -1.365,-0.339 -0.683,0 -1.26,0.164 -1.732,0.492 -0.472,0.328 -0.824,0.77 -1.058,1.324 -0.236,0.554 -0.353,1.171 -0.353,1.85 v 0.286 c 0,0.679 0.117,1.295 0.353,1.85 0.234,0.555 0.586,0.996 1.058,1.324 0.472,0.329 1.049,0.493 1.732,0.493 0.538,0 1.017,-0.116 1.436,-0.347 C -0.959,4.583 -0.63,4.266 -0.391,3.86 -0.152,3.455 -0.021,3.001 0,2.499 H -1.153 C -1.176,2.802 -1.258,3.079 -1.401,3.331 -1.545,3.582 -1.738,3.78 -1.981,3.925 -2.225,4.07 -2.503,4.142 -2.815,4.142 -3.281,4.142 -3.657,4.017 -3.943,3.765 -4.23,3.514 -4.435,3.19 -4.557,2.794 -4.678,2.397 -4.739,1.965 -4.739,1.494 V 1.208 c 0,-0.751 0.149,-1.38 0.447,-1.888 0.297,-0.507 0.789,-0.759 1.477,-0.759 0.282,0 0.545,0.061 0.792,0.186 0.245,0.124 0.446,0.296 0.602,0.516 0.156,0.219 0.245,0.466 0.268,0.737 z"
             style="fill:#ffffff;fill-opacity:1;fill-rule:nonzero;stroke:none"
             id="path100"
             inkscape:connector-curvature="0" /></g><g
           id="g102"
           transform="translate(234.1255,57.4858)"><path
             d="m 0,0 c 0.149,-0.411 0.374,-0.738 0.675,-0.98 0.3,-0.243 0.664,-0.364 1.095,-0.364 0.425,0 0.789,0.121 1.088,0.364 0.3,0.242 0.525,0.569 0.675,0.98 0.15,0.412 0.225,0.867 0.225,1.365 V 1.521 C 3.758,2.02 3.682,2.475 3.529,2.887 3.377,3.298 3.151,3.627 2.852,3.871 2.552,4.116 2.187,4.238 1.757,4.238 1.33,4.238 0.969,4.116 0.671,3.871 0.373,3.627 0.149,3.298 0,2.887 -0.15,2.475 -0.226,2.02 -0.226,1.521 V 1.365 C -0.226,0.867 -0.15,0.412 0,0 m -1.053,3.437 c 0.261,0.565 0.633,1.01 1.117,1.334 0.486,0.324 1.049,0.485 1.693,0.485 0.651,0 1.221,-0.161 1.708,-0.485 C 3.951,4.447 4.325,4.002 4.586,3.437 4.847,2.87 4.977,2.232 4.977,1.521 V 1.365 C 4.977,0.654 4.847,0.018 4.586,-0.546 4.325,-1.109 3.952,-1.554 3.468,-1.877 2.983,-2.201 2.417,-2.362 1.77,-2.362 c -0.648,0 -1.214,0.161 -1.699,0.485 -0.484,0.323 -0.858,0.768 -1.121,1.331 -0.262,0.564 -0.394,1.2 -0.394,1.911 v 0.156 c 0,0.711 0.131,1.349 0.391,1.916"
             style="fill:#ffffff;fill-opacity:1;fill-rule:nonzero;stroke:none"
             id="path104"
             inkscape:connector-curvature="0" /></g><g
           id="g106"
           transform="translate(246.1685,60.0737)"><path
             d="m 0,0 v -4.814 h -1.219 v 4.828 c 0,0.56 -0.117,0.968 -0.349,1.222 -0.233,0.253 -0.583,0.38 -1.053,0.38 C -2.994,1.616 -3.33,1.51 -3.628,1.297 -3.926,1.084 -4.161,0.799 -4.335,0.441 V -4.814 H -5.554 V 2.533 H -4.4 l 0.039,-0.904 c 0.257,0.331 0.562,0.587 0.919,0.768 0.356,0.181 0.75,0.271 1.18,0.271 C -0.754,2.668 0,1.779 0,0"
             style="fill:#ffffff;fill-opacity:1;fill-rule:nonzero;stroke:none"
             id="path108"
             inkscape:connector-curvature="0" /></g><g
           id="g110"
           transform="translate(249.1187,57.4858)"><path
             d="m 0,0 c 0.149,-0.411 0.374,-0.738 0.675,-0.98 0.3,-0.243 0.664,-0.364 1.095,-0.364 0.425,0 0.789,0.121 1.088,0.364 0.3,0.242 0.525,0.569 0.675,0.98 0.15,0.412 0.225,0.867 0.225,1.365 V 1.521 C 3.758,2.02 3.682,2.475 3.529,2.887 3.377,3.298 3.151,3.627 2.852,3.871 2.552,4.116 2.187,4.238 1.757,4.238 1.33,4.238 0.969,4.116 0.671,3.871 0.373,3.627 0.149,3.298 0,2.887 -0.15,2.475 -0.226,2.02 -0.226,1.521 V 1.365 C -0.226,0.867 -0.15,0.412 0,0 m -1.053,3.437 c 0.261,0.565 0.633,1.01 1.117,1.334 0.486,0.324 1.049,0.485 1.693,0.485 0.651,0 1.221,-0.161 1.708,-0.485 C 3.951,4.447 4.325,4.002 4.586,3.437 4.847,2.87 4.977,2.232 4.977,1.521 V 1.365 C 4.977,0.654 4.847,0.018 4.586,-0.546 4.325,-1.109 3.952,-1.554 3.468,-1.877 2.983,-2.201 2.417,-2.362 1.77,-2.362 c -0.648,0 -1.214,0.161 -1.699,0.485 -0.484,0.323 -0.858,0.768 -1.121,1.331 -0.262,0.564 -0.394,1.2 -0.394,1.911 v 0.156 c 0,0.711 0.131,1.349 0.391,1.916"
             style="fill:#ffffff;fill-opacity:1;fill-rule:nonzero;stroke:none"
             id="path112"
             inkscape:connector-curvature="0" /></g><g
           id="g114"
           transform="translate(264.8902,62.0972)"><path
             d="m 0,0 c 0.399,-0.43 0.6,-1.1 0.6,-2.01 v -4.828 h -1.219 v 4.841 c 0,0.584 -0.127,0.996 -0.382,1.233 -0.254,0.238 -0.627,0.357 -1.117,0.357 -0.314,0 -0.587,-0.07 -0.822,-0.208 -0.235,-0.137 -0.418,-0.324 -0.551,-0.56 -0.132,-0.235 -0.214,-0.5 -0.244,-0.795 v -4.868 h -1.219 v 4.835 c 0,1.064 -0.502,1.596 -1.506,1.596 -0.404,0 -0.739,-0.092 -1.004,-0.276 -0.265,-0.183 -0.468,-0.438 -0.606,-0.763 v -5.392 h -1.219 v 7.347 h 1.153 l 0.039,-0.794 c 0.244,0.299 0.539,0.528 0.887,0.689 0.348,0.16 0.745,0.241 1.193,0.241 0.465,0 0.872,-0.096 1.222,-0.289 0.351,-0.192 0.614,-0.485 0.792,-0.879 0.244,0.362 0.556,0.648 0.936,0.856 0.38,0.208 0.816,0.312 1.307,0.312 C -0.986,0.645 -0.399,0.43 0,0"
             style="fill:#ffffff;fill-opacity:1;fill-rule:nonzero;stroke:none"
             id="path116"
             inkscape:connector-curvature="0" /></g><path
           d="m 267.413,62.606 h 1.22 v -7.347 h -1.22 z m 1.151,2.472 c 0.128,-0.136 0.191,-0.307 0.191,-0.516 0,-0.204 -0.063,-0.373 -0.191,-0.506 -0.129,-0.133 -0.306,-0.2 -0.532,-0.2 -0.226,0 -0.401,0.067 -0.525,0.2 -0.124,0.133 -0.185,0.302 -0.185,0.506 0,0.209 0.061,0.38 0.185,0.516 0.124,0.136 0.299,0.204 0.525,0.204 0.226,0 0.403,-0.068 0.532,-0.204"
           style="fill:#ffffff;fill-opacity:1;fill-rule:nonzero;stroke:none"
           id="path118"
           inkscape:connector-curvature="0" /><g
           id="g120"
           transform="translate(276.1998,57.5815)"><path
             d="m 0,0 c -0.021,-0.431 -0.163,-0.834 -0.424,-1.212 -0.261,-0.378 -0.602,-0.681 -1.026,-0.907 -0.424,-0.226 -0.879,-0.339 -1.365,-0.339 -0.683,0 -1.26,0.164 -1.732,0.492 -0.472,0.328 -0.824,0.77 -1.058,1.324 -0.236,0.554 -0.353,1.171 -0.353,1.85 v 0.286 c 0,0.679 0.117,1.295 0.353,1.85 0.234,0.555 0.586,0.996 1.058,1.324 0.472,0.329 1.049,0.493 1.732,0.493 0.538,0 1.017,-0.116 1.436,-0.347 C -0.959,4.583 -0.63,4.266 -0.391,3.86 -0.152,3.455 -0.021,3.001 0,2.499 H -1.153 C -1.176,2.802 -1.258,3.079 -1.401,3.331 -1.545,3.582 -1.738,3.78 -1.981,3.925 -2.225,4.07 -2.503,4.142 -2.815,4.142 -3.281,4.142 -3.657,4.017 -3.943,3.765 -4.23,3.514 -4.435,3.19 -4.557,2.794 -4.678,2.397 -4.739,1.965 -4.739,1.494 V 1.208 c 0,-0.751 0.149,-1.38 0.447,-1.888 0.297,-0.507 0.789,-0.759 1.477,-0.759 0.282,0 0.545,0.061 0.792,0.186 0.245,0.124 0.446,0.296 0.602,0.516 0.156,0.219 0.245,0.466 0.268,0.737 z"
             style="fill:#ffffff;fill-opacity:1;fill-rule:nonzero;stroke:none"
             id="path122"
             inkscape:connector-curvature="0" /></g><g
           id="g124"
           transform="translate(278.1392,59.2446)"><path
             d="m 0,0 c -0.429,0.326 -0.643,0.776 -0.643,1.352 0,0.389 0.109,0.747 0.327,1.073 C -0.1,2.75 0.208,3.011 0.605,3.206 1.004,3.4 1.459,3.498 1.972,3.498 2.52,3.498 2.997,3.396 3.405,3.192 3.814,2.988 4.126,2.713 4.341,2.367 4.557,2.021 4.664,1.635 4.664,1.209 h -1.22 c 0,0.208 -0.058,0.41 -0.175,0.604 C 3.151,2.008 2.98,2.168 2.757,2.292 2.533,2.417 2.271,2.479 1.972,2.479 1.654,2.479 1.392,2.428 1.183,2.326 0.975,2.225 0.821,2.091 0.724,1.926 0.625,1.76 0.576,1.583 0.576,1.393 0.576,1.197 0.621,1.036 0.71,0.907 0.799,0.778 0.96,0.661 1.192,0.558 1.425,0.453 1.761,0.352 2.2,0.252 2.791,0.111 3.271,-0.054 3.641,-0.244 4.01,-0.435 4.284,-0.667 4.465,-0.943 4.646,-1.22 4.735,-1.555 4.735,-1.948 4.735,-2.374 4.622,-2.751 4.396,-3.079 4.171,-3.407 3.852,-3.663 3.438,-3.847 3.025,-4.029 2.547,-4.121 2.004,-4.121 c -0.6,0 -1.118,0.111 -1.555,0.336 -0.436,0.223 -0.767,0.519 -0.994,0.886 -0.226,0.367 -0.339,0.758 -0.339,1.174 h 1.219 c 0.018,-0.326 0.109,-0.591 0.274,-0.797 0.165,-0.207 0.37,-0.355 0.617,-0.445 0.245,-0.091 0.504,-0.136 0.778,-0.136 0.317,0 0.59,0.046 0.818,0.139 0.229,0.093 0.402,0.22 0.519,0.381 0.117,0.16 0.176,0.343 0.176,0.546 0,0.204 -0.041,0.381 -0.124,0.53 C 3.31,-1.357 3.151,-1.22 2.917,-1.093 2.682,-0.966 2.343,-0.855 1.899,-0.76 1.062,-0.579 0.428,-0.325 0,0"
             style="fill:#ffffff;fill-opacity:1;fill-rule:nonzero;stroke:none"
             id="path126"
             inkscape:connector-curvature="0" /></g><g
           id="g128"
           transform="translate(203.3668,41.6206)"><path
             d="M 0,0 C 0.241,0.102 0.448,0.236 0.622,0.404 0.796,0.571 0.929,0.753 1.02,0.947 V 2.468 H 0.029 c -0.695,0 -1.228,-0.114 -1.597,-0.343 -0.369,-0.229 -0.554,-0.566 -0.554,-1.015 0,-0.24 0.052,-0.455 0.156,-0.645 0.105,-0.19 0.257,-0.341 0.456,-0.451 0.2,-0.112 0.444,-0.167 0.731,-0.167 0.278,0 0.538,0.051 0.779,0.153 m 2.304,-0.299 c 0.044,-0.274 0.104,-0.506 0.182,-0.696 v -0.109 h -1.27 c -0.074,0.177 -0.131,0.433 -0.17,0.768 -0.243,-0.271 -0.536,-0.49 -0.877,-0.655 -0.341,-0.165 -0.716,-0.248 -1.124,-0.248 -0.47,0 -0.886,0.095 -1.249,0.288 -0.362,0.192 -0.643,0.454 -0.841,0.785 -0.197,0.33 -0.296,0.696 -0.296,1.1 0,0.52 0.129,0.962 0.388,1.324 0.258,0.362 0.626,0.635 1.101,0.818 0.476,0.184 1.038,0.275 1.685,0.275 H 1.02 v 0.584 c 0,0.448 -0.127,0.8 -0.381,1.056 C 0.384,5.246 0.019,5.374 -0.46,5.374 -0.751,5.374 -1.012,5.321 -1.242,5.215 -1.473,5.108 -1.651,4.966 -1.78,4.787 -1.908,4.608 -1.973,4.415 -1.973,4.207 h -1.218 c 0,0.357 0.117,0.703 0.352,1.038 0.235,0.335 0.565,0.609 0.99,0.818 0.426,0.211 0.913,0.317 1.46,0.317 0.522,0 0.98,-0.092 1.373,-0.276 C 1.377,5.921 1.685,5.645 1.906,5.276 2.128,4.907 2.239,4.455 2.239,3.921 V 0.499 c 0,-0.258 0.022,-0.524 0.065,-0.798"
             style="fill:#ffffff;fill-opacity:1;fill-rule:nonzero;stroke:none"
             id="path130"
             inkscape:connector-curvature="0" /></g><g
           id="g132"
           transform="translate(213.0504,45.3315)"><path
             d="m 0,0 v -4.814 h -1.219 v 4.828 c 0,0.561 -0.117,0.968 -0.349,1.221 C -1.801,1.489 -2.151,1.616 -2.621,1.616 -2.994,1.616 -3.33,1.51 -3.628,1.297 -3.926,1.084 -4.161,0.799 -4.335,0.441 V -4.814 H -5.554 V 2.533 H -4.4 L -4.361,1.63 c 0.257,0.33 0.562,0.586 0.919,0.766 0.356,0.182 0.75,0.273 1.18,0.273 C -0.754,2.669 0,1.779 0,0"
             style="fill:#ffffff;fill-opacity:1;fill-rule:nonzero;stroke:none"
             id="path134"
             inkscape:connector-curvature="0" /></g><g
           id="g136"
           transform="translate(219.315,42.5063)"><path
             d="M 0,0 V 3.402 C -0.165,3.724 -0.384,3.978 -0.655,4.163 -0.927,4.349 -1.258,4.441 -1.649,4.441 -2.071,4.441 -2.422,4.322 -2.702,4.085 -2.982,3.847 -3.188,3.524 -3.321,3.117 -3.454,2.71 -3.521,2.252 -3.521,1.745 V 1.603 c 0,-0.507 0.067,-0.961 0.2,-1.362 0.133,-0.4 0.338,-0.719 0.616,-0.954 0.278,-0.235 0.626,-0.352 1.043,-0.352 C -0.91,-1.065 -0.356,-0.71 0,0 M 1.219,8.44 V -1.989 H 0.104 l -0.058,0.781 c -0.479,-0.611 -1.148,-0.917 -2.008,-0.917 -0.544,0 -1.026,0.16 -1.447,0.482 -0.422,0.322 -0.749,0.765 -0.982,1.331 -0.232,0.566 -0.348,1.205 -0.348,1.915 v 0.142 c 0,0.743 0.115,1.397 0.345,1.963 0.231,0.565 0.557,1.005 0.978,1.317 0.422,0.313 0.91,0.469 1.467,0.469 0.83,0 1.479,-0.288 1.949,-0.862 V 8.44 Z"
             style="fill:#ffffff;fill-opacity:1;fill-rule:nonzero;stroke:none"
             id="path138"
             inkscape:connector-curvature="0" /></g><g
           id="g140"
           transform="translate(228.7086,40.5171)"><path
             d="m 0,0 c -0.277,-0.091 -0.589,-0.136 -0.932,-0.136 -0.491,0 -0.885,0.154 -1.183,0.462 -0.298,0.308 -0.447,0.808 -0.447,1.5 V 6.39 h -1.284 v 0.958 h 1.284 v 1.785 h 1.219 V 7.348 h 1.318 V 6.39 H -1.343 V 1.819 c 0,-0.348 0.07,-0.582 0.209,-0.702 0.139,-0.12 0.328,-0.18 0.568,-0.18 0.09,0 0.19,0.008 0.299,0.024 0.109,0.016 0.196,0.032 0.261,0.051 z"
             style="fill:#ffffff;fill-opacity:1;fill-rule:nonzero;stroke:none"
             id="path142"
             inkscape:connector-curvature="0" /></g><g
           id="g144"
           transform="translate(235.6382,45.3315)"><path
             d="m 0,0 v -4.814 h -1.219 v 4.828 c 0,0.561 -0.117,0.968 -0.349,1.221 C -1.801,1.489 -2.151,1.616 -2.621,1.616 -2.994,1.616 -3.33,1.51 -3.628,1.297 -3.926,1.084 -4.161,0.799 -4.335,0.441 V -4.814 H -5.554 V 5.615 h 1.219 V 1.663 c 0.256,0.322 0.561,0.569 0.912,0.744 0.353,0.174 0.739,0.262 1.161,0.262 C -0.754,2.669 0,1.779 0,0"
             style="fill:#ffffff;fill-opacity:1;fill-rule:nonzero;stroke:none"
             id="path146"
             inkscape:connector-curvature="0" /></g><g
           id="g148"
           transform="translate(241.9029,44.9575)"><path
             d="M 0,0 C -0.035,0.575 -0.184,1.057 -0.446,1.443 -0.71,1.83 -1.123,2.024 -1.688,2.024 -2.175,2.024 -2.58,1.84 -2.904,1.471 -3.228,1.102 -3.431,0.58 -3.514,-0.095 H 0 Z m 1.219,-1.113 h -4.772 c 0.013,-0.457 0.105,-0.871 0.274,-1.242 0.17,-0.372 0.41,-0.666 0.72,-0.88 0.311,-0.215 0.675,-0.323 1.092,-0.323 0.408,0 0.762,0.086 1.06,0.258 0.298,0.172 0.563,0.419 0.799,0.74 L 1.128,-3.157 C 0.867,-3.573 0.52,-3.914 0.085,-4.179 -0.35,-4.443 -0.889,-4.576 -1.532,-4.576 c -0.643,0 -1.21,0.151 -1.701,0.455 -0.492,0.303 -0.871,0.724 -1.138,1.263 -0.267,0.539 -0.4,1.15 -0.4,1.834 v 0.292 c 0,0.764 0.143,1.433 0.429,2.005 0.287,0.574 0.666,1.011 1.138,1.315 0.472,0.303 0.976,0.455 1.516,0.455 0.656,0 1.2,-0.153 1.632,-0.459 C 0.377,2.278 0.697,1.856 0.906,1.317 1.114,0.779 1.219,0.156 1.219,-0.55 Z"
             style="fill:#ffffff;fill-opacity:1;fill-rule:nonzero;stroke:none"
             id="path150"
             inkscape:connector-curvature="0" /></g><g
           id="g152"
           transform="translate(254.0543,41.5767)"><path
             d="M 0,0 V -1.06 H -5.014 -6.03 v 9.887 h 1.264 4.701 V 7.761 H -4.766 V 4.576 h 4.101 V 3.518 H -4.766 V 0 Z"
             style="fill:#ffffff;fill-opacity:1;fill-rule:nonzero;stroke:none"
             id="path154"
             inkscape:connector-curvature="0" /></g><g
           id="g156"
           transform="translate(260.9771,45.3315)"><path
             d="m 0,0 v -4.814 h -1.219 v 4.828 c 0,0.561 -0.117,0.968 -0.349,1.221 C -1.801,1.489 -2.151,1.616 -2.621,1.616 -2.994,1.616 -3.33,1.51 -3.628,1.297 -3.926,1.084 -4.161,0.799 -4.335,0.441 V -4.814 H -5.554 V 2.533 H -4.4 L -4.361,1.63 c 0.257,0.33 0.562,0.586 0.919,0.766 0.356,0.182 0.75,0.273 1.18,0.273 C -0.754,2.669 0,1.779 0,0"
             style="fill:#ffffff;fill-opacity:1;fill-rule:nonzero;stroke:none"
             id="path158"
             inkscape:connector-curvature="0" /></g><g
           id="g160"
           transform="translate(268.1089,47.8647)"><path
             d="M 0,0 -2.529,-7.348 H -3.351 -3.455 L -6.011,0 h 1.245 L -2.979,-5.63 -1.245,0 Z"
             style="fill:#ffffff;fill-opacity:1;fill-rule:nonzero;stroke:none"
             id="path162"
             inkscape:connector-curvature="0" /></g><path
           d="m 269.373,47.865 h 1.22 v -7.348 h -1.22 z m 1.151,2.471 c 0.128,-0.136 0.191,-0.308 0.191,-0.516 0,-0.204 -0.063,-0.372 -0.191,-0.506 -0.129,-0.134 -0.306,-0.2 -0.532,-0.2 -0.226,0 -0.401,0.066 -0.525,0.2 -0.124,0.134 -0.185,0.302 -0.185,0.506 0,0.208 0.061,0.38 0.185,0.516 0.124,0.136 0.299,0.204 0.525,0.204 0.226,0 0.403,-0.068 0.532,-0.204"
           style="fill:#ffffff;fill-opacity:1;fill-rule:nonzero;stroke:none"
           id="path164"
           inkscape:connector-curvature="0" /><g
           id="g166"
           transform="translate(275.689,47.9692)"><path
             d="m 0,0 c 0.118,-0.021 0.198,-0.042 0.241,-0.064 v -1.162 c -0.186,0.037 -0.385,0.055 -0.593,0.055 -0.4,0 -0.733,-0.093 -1.001,-0.278 -0.266,-0.186 -0.467,-0.447 -0.602,-0.781 v -5.222 h -1.219 v 7.348 h 1.186 l 0.026,-0.836 c 0.183,0.307 0.413,0.546 0.691,0.716 0.278,0.17 0.604,0.255 0.978,0.255 C -0.215,0.031 -0.117,0.021 0,0"
             style="fill:#ffffff;fill-opacity:1;fill-rule:nonzero;stroke:none"
             id="path168"
             inkscape:connector-curvature="0" /></g><g
           id="g170"
           transform="translate(277.9439,42.7446)"><path
             d="m 0,0 c 0.149,-0.412 0.374,-0.739 0.675,-0.981 0.3,-0.243 0.664,-0.364 1.095,-0.364 0.425,0 0.789,0.121 1.088,0.364 0.3,0.242 0.525,0.569 0.675,0.981 0.15,0.411 0.225,0.866 0.225,1.364 V 1.521 C 3.758,2.019 3.682,2.474 3.529,2.886 3.377,3.298 3.151,3.626 2.852,3.87 2.552,4.114 2.187,4.237 1.757,4.237 1.33,4.237 0.969,4.114 0.671,3.87 0.373,3.626 0.149,3.298 0,2.886 -0.15,2.474 -0.226,2.019 -0.226,1.521 V 1.364 C -0.226,0.866 -0.15,0.411 0,0 M -1.053,3.436 C -0.792,4.002 -0.42,4.446 0.064,4.77 0.55,5.094 1.113,5.256 1.757,5.256 2.408,5.256 2.978,5.094 3.465,4.77 3.951,4.446 4.325,4.002 4.586,3.436 4.847,2.87 4.977,2.231 4.977,1.521 V 1.364 C 4.977,0.654 4.847,0.017 4.586,-0.547 4.325,-1.11 3.952,-1.555 3.468,-1.878 2.983,-2.201 2.417,-2.363 1.77,-2.363 c -0.648,0 -1.214,0.162 -1.699,0.485 -0.484,0.323 -0.858,0.768 -1.121,1.331 -0.262,0.564 -0.394,1.201 -0.394,1.911 v 0.157 c 0,0.71 0.131,1.349 0.391,1.915"
             style="fill:#ffffff;fill-opacity:1;fill-rule:nonzero;stroke:none"
             id="path172"
             inkscape:connector-curvature="0" /></g><g
           id="g174"
           transform="translate(289.9869,45.3315)"><path
             d="m 0,0 v -4.814 h -1.219 v 4.828 c 0,0.561 -0.117,0.968 -0.349,1.221 C -1.801,1.489 -2.151,1.616 -2.621,1.616 -2.994,1.616 -3.33,1.51 -3.628,1.297 -3.926,1.084 -4.161,0.799 -4.335,0.441 V -4.814 H -5.554 V 2.533 H -4.4 L -4.361,1.63 c 0.257,0.33 0.562,0.586 0.919,0.766 0.356,0.182 0.75,0.273 1.18,0.273 C -0.754,2.669 0,1.779 0,0"
             style="fill:#ffffff;fill-opacity:1;fill-rule:nonzero;stroke:none"
             id="path176"
             inkscape:connector-curvature="0" /></g><g
           id="g178"
           transform="translate(301.0884,47.355)"><path
             d="m 0,0 c 0.399,-0.43 0.6,-1.1 0.6,-2.01 v -4.828 h -1.219 v 4.842 c 0,0.584 -0.127,0.994 -0.382,1.232 -0.254,0.238 -0.627,0.357 -1.117,0.357 -0.314,0 -0.587,-0.07 -0.822,-0.207 -0.235,-0.139 -0.418,-0.325 -0.551,-0.561 -0.132,-0.235 -0.214,-0.5 -0.244,-0.794 v -4.869 h -1.219 v 4.835 c 0,1.064 -0.502,1.596 -1.506,1.596 -0.404,0 -0.739,-0.092 -1.004,-0.276 C -7.729,-0.866 -7.932,-1.12 -8.07,-1.446 V -6.838 H -9.289 V 0.51 h 1.153 l 0.039,-0.795 c 0.244,0.299 0.539,0.528 0.887,0.689 0.348,0.16 0.745,0.242 1.193,0.242 0.465,0 0.872,-0.097 1.222,-0.29 0.351,-0.192 0.614,-0.485 0.792,-0.878 0.244,0.361 0.556,0.646 0.936,0.855 0.38,0.208 0.816,0.313 1.307,0.313 C -0.986,0.646 -0.399,0.43 0,0"
             style="fill:#ffffff;fill-opacity:1;fill-rule:nonzero;stroke:none"
             id="path180"
             inkscape:connector-curvature="0" /></g><g
           id="g182"
           transform="translate(307.9722,44.9575)"><path
             d="M 0,0 C -0.035,0.575 -0.184,1.057 -0.446,1.443 -0.71,1.83 -1.123,2.024 -1.688,2.024 -2.175,2.024 -2.58,1.84 -2.904,1.471 -3.228,1.102 -3.431,0.58 -3.514,-0.095 H 0 Z m 1.219,-1.113 h -4.772 c 0.013,-0.457 0.105,-0.871 0.274,-1.242 0.17,-0.372 0.41,-0.666 0.72,-0.88 0.311,-0.215 0.675,-0.323 1.092,-0.323 0.408,0 0.762,0.086 1.06,0.258 0.298,0.172 0.563,0.419 0.799,0.74 L 1.128,-3.157 C 0.867,-3.573 0.52,-3.914 0.085,-4.179 -0.35,-4.443 -0.889,-4.576 -1.532,-4.576 c -0.643,0 -1.21,0.151 -1.701,0.455 -0.492,0.303 -0.871,0.724 -1.138,1.263 -0.267,0.539 -0.4,1.15 -0.4,1.834 v 0.292 c 0,0.764 0.143,1.433 0.429,2.005 0.287,0.574 0.666,1.011 1.138,1.315 0.472,0.303 0.976,0.455 1.516,0.455 0.656,0 1.2,-0.153 1.632,-0.459 C 0.377,2.278 0.697,1.856 0.906,1.317 1.114,0.779 1.219,0.156 1.219,-0.55 Z"
             style="fill:#ffffff;fill-opacity:1;fill-rule:nonzero;stroke:none"
             id="path184"
             inkscape:connector-curvature="0" /></g><g
           id="g186"
           transform="translate(316.147,45.3315)"><path
             d="m 0,0 v -4.814 h -1.219 v 4.828 c 0,0.561 -0.117,0.968 -0.349,1.221 C -1.801,1.489 -2.151,1.616 -2.621,1.616 -2.994,1.616 -3.33,1.51 -3.628,1.297 -3.926,1.084 -4.161,0.799 -4.335,0.441 V -4.814 H -5.554 V 2.533 H -4.4 L -4.361,1.63 c 0.257,0.33 0.562,0.586 0.919,0.766 0.356,0.182 0.75,0.273 1.18,0.273 C -0.754,2.669 0,1.779 0,0"
             style="fill:#ffffff;fill-opacity:1;fill-rule:nonzero;stroke:none"
             id="path188"
             inkscape:connector-curvature="0" /></g><g
           id="g190"
           transform="translate(320.9576,40.5171)"><path
             d="m 0,0 c -0.277,-0.091 -0.589,-0.136 -0.932,-0.136 -0.491,0 -0.885,0.154 -1.183,0.462 -0.298,0.308 -0.447,0.808 -0.447,1.5 V 6.39 h -1.284 v 0.958 h 1.284 v 1.785 h 1.219 V 7.348 h 1.318 V 6.39 H -1.343 V 1.819 c 0,-0.348 0.07,-0.582 0.209,-0.702 0.139,-0.12 0.328,-0.18 0.568,-0.18 0.09,0 0.19,0.008 0.299,0.024 0.109,0.016 0.196,0.032 0.261,0.051 z"
             style="fill:#ffffff;fill-opacity:1;fill-rule:nonzero;stroke:none"
             id="path192"
             inkscape:connector-curvature="0" /></g><path
           d="m 116.498,34.625 h -0.92 V 86.47 h 0.92 z"
           style="fill:#ffffff;fill-opacity:1;fill-rule:nonzero;stroke:none"
           id="path194"
           inkscape:connector-curvature="0" /><g
           id="g196"
           transform="translate(53.9932,41.1538)"><path
             d="M 0,0 C 0,11.202 9.035,20.288 20.214,20.384 L 0.72,55.674 c -0.175,0.316 -0.432,0.579 -0.743,0.761 -0.955,0.556 -2.179,0.233 -2.736,-0.721 L -33.882,2.341 c -0.178,-0.306 -0.272,-0.654 -0.272,-1.007 0,-1.105 0.896,-2 2,-2 H 0.034 C 0.026,-0.443 0,-0.225 0,0"
             style="fill:#ffffff;fill-opacity:1;fill-rule:nonzero;stroke:none"
             id="path198"
             inkscape:connector-curvature="0" /></g><g
           id="g200"
           transform="translate(107.3174,43.4575)"><path
             d="m 0,0 -19.532,35.365 c -0.175,0.317 -0.431,0.579 -0.743,0.761 -0.954,0.557 -2.179,0.234 -2.736,-0.72 L -33.11,18.082 c 11.161,-0.119 20.175,-9.193 20.175,-20.383 0,-0.224 -0.026,-0.443 -0.033,-0.666 h 11.217 c 0.338,0 0.671,0.086 0.967,0.249 C 0.183,-2.184 0.534,-0.967 0,0"
             style="fill:#ffffff;fill-opacity:1;fill-rule:nonzero;stroke:none"
             id="path202"
             inkscape:connector-curvature="0" /></g><g
           id="g204"
           transform="translate(76.2032,57.5874)"><path
             d="m 0,0 c -9.051,1.063 -17.283,-5.437 -18.346,-14.493 -0.3,-2.537 0.051,-4.989 0.831,-7.257 -0.236,2.712 0.339,5.436 1.707,7.855 1.795,3.182 4.813,5.972 8.332,6.956 6.004,1.666 15.077,-1.073 14.256,-9.483 -0.239,-2.454 -2.743,-4.266 -4.578,-4.284 -2.468,-0.02 -4.647,1.817 -4.647,4.284 0,1.818 1.09,3.374 2.649,4.072 -1.852,1.464 -4.348,2.063 -6.794,1.384 -2.578,-0.719 -4.718,-2.394 -6.034,-4.728 -1.316,-2.324 -1.644,-5.025 -0.926,-7.605 0.931,-3.338 3.098,-6.114 6.12,-7.813 3.016,-1.702 6.519,-2.128 9.852,-1.205 6.516,1.816 11.019,7.293 11.982,13.576 0.02,0.135 0.062,0.248 0.08,0.379 0.011,0.053 -0.002,0.119 0.007,0.181 C 15.459,-9.195 8.998,-1.057 0,0"
             style="fill:#ffffff;fill-opacity:1;fill-rule:nonzero;stroke:none"
             id="path206"
             inkscape:connector-curvature="0" /></g><g
           id="g208"
           transform="translate(129.1348,71.7612)"><path
             d="M 0,0 H 2.797 C 3.682,0 4.354,0.221 4.812,0.664 5.271,1.106 5.5,1.715 5.5,2.489 5.5,3.28 5.272,3.896 4.818,4.339 4.363,4.781 3.69,5.002 2.797,5.002 H 0 Z M 9.85,-9.068 V -9.246 H 5.867 L 2.69,-3.011 H 0 V -9.246 H -3.723 V 8.013 h 6.52 C 4.133,8.013 5.28,7.813 6.24,7.415 7.201,7.016 7.937,6.427 8.451,5.648 8.965,4.87 9.222,3.92 9.222,2.798 9.222,1.573 8.957,0.571 8.428,-0.207 7.898,-0.986 7.14,-1.6 6.151,-2.05 Z"
             style="fill:#ffffff;fill-opacity:1;fill-rule:nonzero;stroke:none"
             id="path210"
             inkscape:connector-curvature="0" /></g><g
           id="g212"
           transform="translate(144.7227,76.7637)"><path
             d="M 0,0 V -4.267 H 6.792 V -7.254 H 0 v -6.994 H -3.723 V 3.011 H 0 7.609 V 0 Z"
             style="fill:#ffffff;fill-opacity:1;fill-rule:nonzero;stroke:none"
             id="path214"
             inkscape:connector-curvature="0" /></g><g
           id="g216"
           transform="translate(158.0225,76.7637)"><path
             d="M 0,0 V -4.267 H 6.792 V -7.254 H 0 v -6.994 H -3.723 V 3.011 H 0 7.609 V 0 Z"
             style="fill:#ffffff;fill-opacity:1;fill-rule:nonzero;stroke:none"
             id="path218"
             inkscape:connector-curvature="0" /></g><g
           id="g220"
           transform="translate(138.1016,43.147)"><path
             d="m 0,0 c -0.573,-0.909 -1.373,-1.616 -2.4,-2.122 -1.028,-0.506 -2.233,-0.759 -3.616,-0.759 -1.477,0 -2.757,0.338 -3.84,1.014 -1.082,0.676 -1.911,1.639 -2.484,2.892 -0.572,1.252 -0.859,2.728 -0.859,4.427 v 1.056 c 0,1.69 0.297,3.166 0.889,4.427 0.593,1.26 1.43,2.23 2.513,2.91 1.083,0.679 2.347,1.019 3.793,1.019 1.415,0 2.628,-0.26 3.64,-0.782 1.01,-0.521 1.795,-1.243 2.352,-2.164 0.557,-0.92 0.891,-1.985 1.002,-3.194 h -3.711 c -0.07,1.043 -0.357,1.819 -0.859,2.329 -0.502,0.51 -1.31,0.764 -2.424,0.764 -1.161,0 -2.022,-0.426 -2.584,-1.28 C -9.149,9.684 -9.43,8.349 -9.43,6.531 V 5.452 c 0,-1.224 0.115,-2.223 0.344,-2.993 0.23,-0.771 0.593,-1.345 1.091,-1.725 0.498,-0.379 1.157,-0.568 1.979,-0.568 1.067,0 1.864,0.243 2.389,0.729 0.525,0.486 0.823,1.234 0.895,2.246 h 3.71 C 0.899,1.956 0.573,0.908 0,0"
             style="fill:#ffffff;fill-opacity:1;fill-rule:nonzero;stroke:none"
             id="path222"
             inkscape:connector-curvature="0" /></g><g
           id="g224"
           transform="translate(159.6094,40.5034)"><path
             d="m 0,0 h -3.733 v 4.457 l 0.367,8.25 L -7.895,0 h -2.524 l -4.517,12.707 0.369,-8.25 V 0 h -3.723 v 17.259 h 3.153 1.719 L -9.15,4.943 -4.884,17.259 H 0 Z"
             style="fill:#ffffff;fill-opacity:1;fill-rule:nonzero;stroke:none"
             id="path226"
             inkscape:connector-curvature="0" /></g><g
           id="g228"
           transform="translate(175.2867,43.147)"><path
             d="m 0,0 c -0.573,-0.909 -1.373,-1.616 -2.4,-2.122 -1.028,-0.506 -2.233,-0.759 -3.616,-0.759 -1.478,0 -2.758,0.338 -3.841,1.014 -1.082,0.676 -1.91,1.639 -2.483,2.892 -0.573,1.252 -0.86,2.728 -0.86,4.427 v 1.056 c 0,1.69 0.297,3.166 0.89,4.427 0.593,1.26 1.43,2.23 2.513,2.91 1.083,0.679 2.346,1.019 3.793,1.019 1.415,0 2.628,-0.26 3.64,-0.782 1.01,-0.521 1.795,-1.243 2.352,-2.164 0.557,-0.92 0.891,-1.985 1.002,-3.194 h -3.711 c -0.07,1.043 -0.357,1.819 -0.859,2.329 -0.503,0.51 -1.31,0.764 -2.424,0.764 -1.162,0 -2.023,-0.426 -2.584,-1.28 C -9.15,9.684 -9.43,8.349 -9.43,6.531 V 5.452 c 0,-1.224 0.114,-2.223 0.344,-2.993 0.229,-0.771 0.592,-1.345 1.09,-1.725 0.498,-0.379 1.158,-0.568 1.98,-0.568 1.066,0 1.863,0.243 2.389,0.729 0.525,0.486 0.823,1.234 0.895,2.246 h 3.71 C 0.899,1.956 0.573,0.908 0,0"
             style="fill:#ffffff;fill-opacity:1;fill-rule:nonzero;stroke:none"
             id="path230"
             inkscape:connector-curvature="0" /></g><g
           id="g232"
           transform="translate(191.1939,43.147)"><path
             d="m 0,0 c -0.573,-0.909 -1.373,-1.616 -2.4,-2.122 -1.028,-0.506 -2.233,-0.759 -3.616,-0.759 -1.477,0 -2.757,0.338 -3.84,1.014 -1.082,0.676 -1.911,1.639 -2.484,2.892 -0.572,1.252 -0.859,2.728 -0.859,4.427 v 1.056 c 0,1.69 0.297,3.166 0.889,4.427 0.593,1.26 1.43,2.23 2.513,2.91 1.083,0.679 2.347,1.019 3.793,1.019 1.415,0 2.628,-0.26 3.64,-0.782 1.01,-0.521 1.795,-1.243 2.352,-2.164 0.557,-0.92 0.891,-1.985 1.002,-3.194 h -3.711 c -0.07,1.043 -0.357,1.819 -0.859,2.329 -0.502,0.51 -1.31,0.764 -2.424,0.764 -1.161,0 -2.022,-0.426 -2.584,-1.28 C -9.149,9.684 -9.43,8.349 -9.43,6.531 V 5.452 c 0,-1.224 0.115,-2.223 0.344,-2.993 0.23,-0.771 0.593,-1.345 1.091,-1.725 0.498,-0.379 1.157,-0.568 1.979,-0.568 1.067,0 1.864,0.243 2.389,0.729 0.525,0.486 0.823,1.234 0.895,2.246 h 3.71 C 0.899,1.956 0.573,0.908 0,0"
             style="fill:#ffffff;fill-opacity:1;fill-rule:nonzero;stroke:none"
             id="path234"
             inkscape:connector-curvature="0" /></g></g></g></g></svg>